<?xml version="1.0" encoding="utf-8"?>
<!-- Generator: Adobe Illustrator 16.0.0, SVG Export Plug-In . SVG Version: 6.00 Build 0)  -->
<!DOCTYPE svg PUBLIC "-//W3C//DTD SVG 1.1//EN" "http://www.w3.org/Graphics/SVG/1.1/DTD/svg11.dtd">
<svg version="1.1" id="Layer_1" xmlns="http://www.w3.org/2000/svg" xmlns:xlink="http://www.w3.org/1999/xlink" x="0px" y="0px"
	 width="32px" height="32px" viewBox="0 0 32 32" enable-background="new 0 0 32 32" xml:space="preserve">
<g>
	<path fill="#585757" d="M26.786,16.862h-2.5v2h-1.5v-2h-2.5v-2h2.5v-2h1.5v2h2.5V16.862z M18.971,16.862h-0.032
		c-0.304,3-2.753,5.043-5.729,5.043c-3.183,0-5.762-2.638-5.762-5.819c0-3.183,2.579-5.79,5.762-5.79
		c1.556,0,2.966,0.605,4.003,1.608l-1.733,1.293c-0.623-0.499-1.41-0.803-2.27-0.803c-2.01,0-3.639,1.628-3.639,3.638
		c0,2.009,1.629,3.75,3.639,3.75c1.803,0,3.295-1.42,3.584-2.92h-3.507v-2h2.046h1.305h2.203c0.084,0.5,0.131,0.774,0.131,1.19
		c0,0.188-0.011,0.472-0.027,0.653L18.971,16.862z M16,0C7.163,0,0,7.164,0,16s7.163,16,16,16s16-7.164,16-16S24.837,0,16,0"/>
</g>
</svg>
