<?xml version="1.0" encoding="utf-8"?>
<!-- Generator: Adobe Illustrator 16.0.0, SVG Export Plug-In . SVG Version: 6.00 Build 0)  -->
<!DOCTYPE svg PUBLIC "-//W3C//DTD SVG 1.1//EN" "http://www.w3.org/Graphics/SVG/1.1/DTD/svg11.dtd">
<svg version="1.1" id="Layer_1" xmlns="http://www.w3.org/2000/svg" xmlns:xlink="http://www.w3.org/1999/xlink" x="0px" y="0px"
	 width="32px" height="32px" viewBox="0 0 32 32" enable-background="new 0 0 32 32" xml:space="preserve">
<g>
	<path fill="#585757"  d="M24.333,11.31c-0.5,0.442-0.745,0.89-1.146,1.212c-0.161,0.128-0.369,0.257-0.531,0.386
		c0.009,0.716-0.033,1.398-0.167,2c-0.778,3.495-2.85,5.869-6.112,6.885c-1.171,0.366-3.069,0.515-4.412,0.182
		c-0.665-0.165-1.269-0.351-1.834-0.599c-0.313-0.136-0.605-0.285-0.882-0.454c-0.092-0.055-0.184-0.111-0.275-0.166
		c0.303,0.009,0.657,0.092,0.996,0.038c0.306-0.05,0.606-0.037,0.887-0.099c0.706-0.154,1.331-0.359,1.87-0.674
		c0.261-0.153,0.657-0.333,0.843-0.554c-0.35,0.006-0.667-0.075-0.927-0.167c-1.008-0.354-1.594-1.009-1.975-1.992
		c0.305,0.033,1.185,0.113,1.39-0.061c-0.384-0.021-0.754-0.243-1.017-0.409c-0.811-0.506-1.472-1.357-1.467-2.666
		c0.106,0.051,0.213,0.101,0.319,0.152c0.203,0.086,0.41,0.026,0.653,0.077c0.103,0.02,0.308,0.431,0.426-0.069h-0.015
		c-0.157,0-0.412-0.198-0.57-0.393c-0.52-0.647-1.008-1.589-0.699-2.773c0.078-0.301,0.202-0.54,0.334-0.785
		c0.005,0.003,0.01,0.018,0.016,0.021c0.06,0.126,0.194,0.226,0.28,0.332c0.266,0.329,0.594,0.628,0.928,0.89
		c1.137,0.889,2.161,1.438,3.806,1.842c0.417,0.103,0.899,0.182,1.398,0.183c-0.141-0.408-0.096-1.067,0.015-1.462
		c0.277-0.992,0.879-1.707,1.762-2.09c0.213-0.092,0.446-0.159,0.691-0.212c0.127-0.015,0.254-0.03,0.38-0.045
		c1.207-0.022,1.85,0.418,2.462,0.976c0.521-0.044,1.198-0.335,1.595-0.537c0.131-0.071,0.26-0.142,0.389-0.212
		c-0.229,0.615-0.564,1.096-1.039,1.461c-0.105,0.082-0.37,0.191-0.37,0.243v0.008c0.5-0.008,1.5-0.312,2-0.478V11.31z M16,0
		C7.164,0,0,7.164,0,16s7.164,16,16,16s16-7.164,16-16S24.836,0,16,0"/>
</g>
</svg>
