<?xml version="1.0" encoding="utf-8"?>
<!-- Generator: Adobe Illustrator 16.0.0, SVG Export Plug-In . SVG Version: 6.00 Build 0)  -->
<!DOCTYPE svg PUBLIC "-//W3C//DTD SVG 1.1//EN" "http://www.w3.org/Graphics/SVG/1.1/DTD/svg11.dtd">
<svg version="1.1" id="Layer_1" xmlns="http://www.w3.org/2000/svg" xmlns:xlink="http://www.w3.org/1999/xlink" x="0px" y="0px"
	 width="32px" height="32px" viewBox="0 0 32 32" enable-background="new 0 0 32 32" xml:space="preserve">
<g>
	<path fill="#4d76a1"  d="M24.315,21.269l-2.443-0.003c0,0-0.526,0.124-1.217-0.356c-0.914-0.635-1.777-2.288-2.448-2.072
		c-0.682,0.219-0.66,1.722-0.66,1.722s0.005,0.364-0.149,0.534c-0.17,0.185-0.499,0.27-0.499,0.27h-1.094
		c0,0-2.414,0.083-4.54-2.159c-2.318-2.445-4.365-7.356-4.365-7.356s-0.118-0.232,0.01-0.386c0.145-0.173,0.537-0.099,0.537-0.099
		h2.615c0,0,0.247-0.056,0.422,0.075c0.146,0.108,0.227,0.262,0.227,0.262s0.423,1.079,0.983,2.058
		c1.092,1.911,1.601,2.318,1.972,2.113c0.541-0.299,0.378-2.709,0.378-2.709s0.01-0.875-0.272-1.264
		c-0.218-0.301-0.63-0.391-0.812-0.415c-0.147-0.02,0.095-0.367,0.408-0.522c0.47-0.233,1.3-0.248,2.283-0.237
		c0.765,0.008,0.985,0.056,1.284,0.129c0.902,0.221,0.597,1.072,0.597,3.114c0,0.654-0.116,1.574,0.349,1.879
		c0.2,0.131,0.691,0.019,1.916-2.088c0.581-0.999,1.016-2.194,1.016-2.194s0.097-0.233,0.243-0.323
		c0.152-0.091,0.356-0.071,0.356-0.071l2.757,0.001c0,0,0.821-0.065,0.955,0.313c0.141,0.397-0.309,1.323-1.433,2.84
		c-1.847,2.492-2.052,2.259-0.52,3.699c1.464,1.376,1.769,2.047,1.818,2.13C25.594,21.17,24.315,21.269,24.315,21.269 M16,0
		C7.163,0,0,7.164,0,16s7.163,16,16,16s16-7.164,16-16S24.837,0,16,0"/>
</g>
</svg>
